<svg xmlns="http://www.w3.org/2000/svg" width="1200" height="800" viewBox="0 0 1200 800"><rect width="1200" height="800" fill="white"/><text x="600" y="58" text-anchor="middle" font-family="Arial" font-size="30" fill="#10233f">Síntese de paisagens físicas do Espírito Santo.</text><rect x="90" y="110" width="255" height="82" fill="#dbeafe" stroke="#64748b"/><text x="218" y="160" text-anchor="middle" font-family="Arial" font-size="21" font-weight="bold">Categoria</text><rect x="345" y="110" width="255" height="82" fill="#dbeafe" stroke="#64748b"/><text x="472" y="160" text-anchor="middle" font-family="Arial" font-size="21" font-weight="bold">Localização e relevo</text><rect x="600" y="110" width="255" height="82" fill="#dbeafe" stroke="#64748b"/><text x="728" y="160" text-anchor="middle" font-family="Arial" font-size="21" font-weight="bold">Clima e águas</text><rect x="855" y="110" width="255" height="82" fill="#dbeafe" stroke="#64748b"/><text x="982" y="160" text-anchor="middle" font-family="Arial" font-size="21" font-weight="bold">Cobertura vegetal</text><rect x="90" y="192" width="255" height="82" fill="white" stroke="#94a3b8"/><text x="218" y="242" text-anchor="middle" font-family="Arial" font-size="20">Área A</text><rect x="345" y="192" width="255" height="82" fill="white" stroke="#94a3b8"/><text x="472" y="242" text-anchor="middle" font-family="Arial" font-size="20">Oeste e noroeste; colin…</text><rect x="600" y="192" width="255" height="82" fill="white" stroke="#94a3b8"/><text x="728" y="242" text-anchor="middle" font-family="Arial" font-size="20">Tropical com estação me…</text><rect x="855" y="192" width="255" height="82" fill="white" stroke="#94a3b8"/><text x="982" y="242" text-anchor="middle" font-family="Arial" font-size="20">Mata Atlântica alterada…</text><rect x="90" y="274" width="255" height="82" fill="white" stroke="#94a3b8"/><text x="218" y="324" text-anchor="middle" font-family="Arial" font-size="20">Área B</text><rect x="345" y="274" width="255" height="82" fill="white" stroke="#94a3b8"/><text x="472" y="324" text-anchor="middle" font-family="Arial" font-size="20">Serras do interior; mai…</text><rect x="600" y="274" width="255" height="82" fill="white" stroke="#94a3b8"/><text x="728" y="324" text-anchor="middle" font-family="Arial" font-size="20">Temperaturas relativame…</text><rect x="855" y="274" width="255" height="82" fill="white" stroke="#94a3b8"/><text x="982" y="324" text-anchor="middle" font-family="Arial" font-size="20">Mata Atlântica em áreas…</text><rect x="90" y="356" width="255" height="82" fill="white" stroke="#94a3b8"/><text x="218" y="406" text-anchor="middle" font-family="Arial" font-size="20">Área C</text><rect x="345" y="356" width="255" height="82" fill="white" stroke="#94a3b8"/><text x="472" y="406" text-anchor="middle" font-family="Arial" font-size="20">Baixadas e planícies li…</text><rect x="600" y="356" width="255" height="82" fill="white" stroke="#94a3b8"/><text x="728" y="406" text-anchor="middle" font-family="Arial" font-size="20">Influência marítima; ri…</text><rect x="855" y="356" width="255" height="82" fill="white" stroke="#94a3b8"/><text x="982" y="406" text-anchor="middle" font-family="Arial" font-size="20">Restinga, manguezal e M…</text></svg>